<?xml version="1.0" encoding="utf-8"?>
<!-- Generator: Adobe Illustrator 26.2.1, SVG Export Plug-In . SVG Version: 6.00 Build 0)  -->
<svg version="1.2" baseProfile="tiny" id="g-nj2-Artboard_12-interactions-img" xmlns="http://www.w3.org/2000/svg" xmlns:xlink="http://www.w3.org/1999/xlink"
	 x="0px" y="0px" viewBox="0 0 1175.03 1724.177" overflow="visible" xml:space="preserve">
<g>
	<g id="seven_00000005987289780427423400000001022436314528869508_">
		
			<path vector-effect="non-scaling-stroke" fill-rule="evenodd" fill="#999999" fill-opacity="0.696" stroke="#232323" stroke-width="0.072" stroke-linecap="square" stroke-linejoin="bevel" stroke-miterlimit="10" stroke-opacity="0.696" d="
			M575.228,843.473c0,17.243-14.003,31.22-31.278,31.22c-17.273,0-31.276-13.978-31.276-31.22c0-17.245,14.003-31.222,31.276-31.222
			C561.226,812.251,575.228,826.228,575.228,843.473"/>
		
			<path vector-effect="non-scaling-stroke" fill-rule="evenodd" fill="#999999" fill-opacity="0.696" stroke="#232323" stroke-width="0.072" stroke-linecap="square" stroke-linejoin="bevel" stroke-miterlimit="10" stroke-opacity="0.696" d="
			M865.828,458.872c0,13.376-10.863,24.22-24.263,24.22s-24.261-10.844-24.261-24.22s10.861-24.217,24.261-24.217
			S865.828,445.497,865.828,458.872"/>
		
			<path vector-effect="non-scaling-stroke" fill-rule="evenodd" fill="#999999" fill-opacity="0.696" stroke="#232323" stroke-width="0.072" stroke-linecap="square" stroke-linejoin="bevel" stroke-miterlimit="10" stroke-opacity="0.696" d="
			M874.882,384.236c0,11.731-9.525,21.242-21.277,21.242s-21.279-9.51-21.279-21.242c0-11.729,9.527-21.239,21.279-21.239
			S874.882,372.507,874.882,384.236"/>
		
			<path vector-effect="non-scaling-stroke" fill-rule="evenodd" fill="#999999" fill-opacity="0.696" stroke="#232323" stroke-width="0.072" stroke-linecap="square" stroke-linejoin="bevel" stroke-miterlimit="10" stroke-opacity="0.696" d="
			M813.995,380.326c0,19.232-15.62,34.824-34.886,34.824c-19.269,0-34.888-15.592-34.888-34.824
			c0-19.235,15.62-34.826,34.888-34.826C798.375,345.5,813.995,361.091,813.995,380.326"/>
		
			<path vector-effect="non-scaling-stroke" fill-rule="evenodd" fill="#999999" fill-opacity="0.696" stroke="#232323" stroke-width="0.072" stroke-linecap="square" stroke-linejoin="bevel" stroke-miterlimit="10" stroke-opacity="0.696" d="
			M833.96,490.058c0,11.731-9.525,21.242-21.277,21.242c-11.752,0-21.279-9.51-21.279-21.242c0-11.731,9.527-21.239,21.279-21.239
			C824.435,468.818,833.96,478.327,833.96,490.058"/>
		
			<path vector-effect="non-scaling-stroke" fill-rule="evenodd" fill="#999999" fill-opacity="0.696" stroke="#232323" stroke-width="0.072" stroke-linecap="square" stroke-linejoin="bevel" stroke-miterlimit="10" stroke-opacity="0.696" d="
			M461.576,1234.183c0,21.919-17.803,39.691-39.763,39.691c-21.958,0-39.761-17.771-39.761-39.691
			c0-21.921,17.803-39.693,39.761-39.693C443.773,1194.491,461.576,1212.262,461.576,1234.183"/>
		
			<path vector-effect="non-scaling-stroke" fill-rule="evenodd" fill="#999999" fill-opacity="0.696" stroke="#232323" stroke-width="0.072" stroke-linecap="square" stroke-linejoin="bevel" stroke-miterlimit="10" stroke-opacity="0.696" d="
			M582.775,905.834c0,11.824-9.603,21.41-21.45,21.41c-11.845,0-21.45-9.586-21.45-21.41c0-11.826,9.605-21.412,21.45-21.412
			C573.172,884.422,582.775,894.008,582.775,905.834"/>
	</g>
	<g id="lines_00000125596386227797054330000015901326676419345336_">
		
			<line fill="#050505" stroke="#232323" stroke-width="3" stroke-miterlimit="10" x1="739.276" y1="393.166" x2="166.869" y2="481.382"/>
		
			<line fill="#050505" stroke="#232323" stroke-width="3" stroke-miterlimit="10" x1="406.615" y1="1193.187" x2="168.842" y2="480.77"/>
	</g>
</g>
<style>
#g-nj2-Artboard_12-interactions-img rect, #g-nj2-Artboard_12-interactions-img circle, #g-nj2-Artboard_12-interactions-img path, #g-nj2-Artboard_12-interactions-img line, #g-nj2-Artboard_12-interactions-img polyline, #g-nj2-Artboard_12-interactions-img polygon { vector-effect: non-scaling-stroke; }
</style>
</svg>

